<svg width="32" height="32" viewBox="0 0 32 32" fill="none" xmlns="http://www.w3.org/2000/svg">
  <defs>
    <!-- Primary gradient for the shield -->
    <linearGradient id="shield-gradient" x1="0%" y1="0%" x2="100%" y2="100%">
      <stop offset="0%" style="stop-color:#0c4a6e;stop-opacity:1" />
      <stop offset="100%" style="stop-color:#0ea5e9;stop-opacity:1" />
    </linearGradient>
    
    <!-- Subtle highlight -->
    <linearGradient id="highlight-gradient" x1="0%" y1="0%" x2="100%" y2="100%">
      <stop offset="0%" style="stop-color:#ffffff;stop-opacity:0.2" />
      <stop offset="100%" style="stop-color:#ffffff;stop-opacity:0.05" />
    </linearGradient>
  </defs>
  
  <!-- Background circle for better contrast at small sizes -->
  <circle cx="16" cy="16" r="16" fill="url(#shield-gradient)"/>
  
  <!-- Simplified shield shape -->
  <path d="M16 4 
           C18 4 20 4.5 22 6 
           C24 4.5 26 4 28 4 
           C29 4 30 5 30 6 
           C30 10 29.5 14 28.5 17 
           C27.5 20 26 22 24 24 
           C22 26 19 27 16 28 
           C13 27 10 26 8 24 
           C6 22 4.5 20 3.5 17 
           C2.5 14 2 10 2 6 
           C2 5 3 4 4 4 
           C6 4 8 4.5 10 6 
           C12 4.5 14 4 16 4 Z" 
        fill="url(#highlight-gradient)" 
        opacity="0.8"/>
  
  <!-- Central security icon - simplified lock -->
  <g fill="white" opacity="0.95">
    <!-- Lock body -->
    <rect x="12" y="18" width="8" height="6" rx="1" ry="1"/>
    <!-- Lock shackle -->
    <path d="M14 18 C14 15.5 15 14 16 14 C17 14 18 15.5 18 18" 
          stroke="white" stroke-width="1.5" fill="none" stroke-linecap="round"/>
    <!-- Keyhole dot -->
    <circle cx="16" cy="20" r="1"/>
  </g>
  
  <!-- Simple checkmark for verification -->
  <path d="M11 20 L14 23 L21 16" 
        stroke="white" 
        stroke-width="2" 
        stroke-linecap="round" 
        stroke-linejoin="round" 
        fill="none" 
        opacity="0.7"/>
</svg>