<svg width="256" height="256" viewBox="0 0 256 256" fill="none" xmlns="http://www.w3.org/2000/svg">
  <defs>
    <!-- Primary gradient for the shield -->
    <linearGradient id="shield-gradient" x1="0%" y1="0%" x2="100%" y2="100%">
      <stop offset="0%" style="stop-color:#0c4a6e;stop-opacity:1" />
      <stop offset="100%" style="stop-color:#0ea5e9;stop-opacity:1" />
    </linearGradient>
    
    <!-- Subtle inner gradient for depth -->
    <linearGradient id="inner-gradient" x1="0%" y1="0%" x2="100%" y2="100%">
      <stop offset="0%" style="stop-color:#ffffff;stop-opacity:0.15" />
      <stop offset="100%" style="stop-color:#ffffff;stop-opacity:0.05" />
    </linearGradient>
    
    <!-- Circuit pattern gradient -->
    <linearGradient id="circuit-gradient" x1="0%" y1="0%" x2="100%" y2="100%">
      <stop offset="0%" style="stop-color:#ffffff;stop-opacity:0.6" />
      <stop offset="100%" style="stop-color:#ffffff;stop-opacity:0.3" />
    </linearGradient>
  </defs>
  
  <!-- Main shield shape -->
  <path d="M128 24 
           C140 24 152 28 160 36 
           C168 28 180 24 192 24 
           C210 24 224 38 224 56 
           C224 80 224 104 220 126 
           C216 148 208 168 194 184 
           C180 200 162 212 128 232 
           C94 212 76 200 62 184 
           C48 168 40 148 36 126 
           C32 104 32 80 32 56 
           C32 38 46 24 64 24 
           C76 24 88 28 96 36 
           C104 28 116 24 128 24 Z" 
        fill="url(#shield-gradient)" 
        stroke="rgba(255,255,255,0.2)" 
        stroke-width="2"/>
  
  <!-- Inner shield for depth -->
  <path d="M128 36 
           C138 36 148 39 154 45 
           C160 39 170 36 180 36 
           C194 36 206 48 206 62 
           C206 82 206 102 203 120 
           C200 138 194 154 183 167 
           C172 180 158 190 128 206 
           C98 190 84 180 73 167 
           C62 154 56 138 53 120 
           C50 102 50 82 50 62 
           C50 48 62 36 76 36 
           C86 36 96 39 102 45 
           C108 39 118 36 128 36 Z" 
        fill="url(#inner-gradient)"/>
  
  <!-- Circuit pattern overlay (subtle tech motif) -->
  <g fill="url(#circuit-gradient)" opacity="0.4">
    <!-- Central node -->
    <circle cx="128" cy="110" r="6"/>
    
    <!-- Circuit connections -->
    <rect x="126" y="90" width="4" height="14"/>
    <rect x="126" y="116" width="4" height="14"/>
    <rect x="108" y="108" width="14" height="4"/>
    <rect x="134" y="108" width="14" height="4"/>
    
    <!-- Corner nodes -->
    <circle cx="108" cy="90" r="3"/>
    <circle cx="148" cy="90" r="3"/>
    <circle cx="108" cy="130" r="3"/>
    <circle cx="148" cy="130" r="3"/>
    
    <!-- Diagonal connections -->
    <rect x="109" y="91" width="17" height="2" transform="rotate(45 117.5 92)"/>
    <rect x="130" y="91" width="17" height="2" transform="rotate(-45 138.5 92)"/>
    <rect x="109" y="127" width="17" height="2" transform="rotate(-45 117.5 128)"/>
    <rect x="130" y="127" width="17" height="2" transform="rotate(45 138.5 128)"/>
  </g>
  
  <!-- Security lock symbol -->
  <g fill="white" opacity="0.9">
    <!-- Lock body -->
    <rect x="118" y="150" width="20" height="16" rx="3" ry="3"/>
    <!-- Lock shackle -->
    <path d="M122 150 C122 144 125 140 128 140 C131 140 134 144 134 150" 
          stroke="white" stroke-width="3" fill="none" stroke-linecap="round"/>
    <!-- Keyhole -->
    <circle cx="128" cy="156" r="2"/>
    <rect x="127" y="156" width="2" height="4"/>
  </g>
  
  <!-- Checkmark for verification -->
  <path d="M108 178 L118 188 L148 158" 
        stroke="white" 
        stroke-width="4" 
        stroke-linecap="round" 
        stroke-linejoin="round" 
        fill="none" 
        opacity="0.9"/>
</svg>